<svg width="43" height="44" xmlns="http://www.w3.org/2000/svg"><g fill="none" fill-rule="evenodd"><path d="M21.244 13.071c4.713 0 8.533 3.87 8.533 8.644 0 4.775-3.82 8.645-8.533 8.645-4.713 0-8.534-3.87-8.534-8.645 0-4.774 3.82-8.644 8.534-8.644" fill="#4B8ABC"/><path d="M21.244 13.935c-4.235 0-7.68 3.49-7.68 7.78s3.445 7.78 7.68 7.78c4.235 0 7.68-3.49 7.68-7.78s-3.445-7.78-7.68-7.78m0 17.29c-5.176 0-9.387-4.267-9.387-9.51 0-5.243 4.211-9.508 9.387-9.508s9.387 4.265 9.387 9.508c0 5.243-4.211 9.51-9.387 9.51" fill="#F7F0EE"/><path d="M40.302 12.187c-5.22-10.64-17.968-14.98-28.472-9.69A21.325 21.325 0 003.703 9.69l8.533 14.984c-1.571-5.06 1.204-10.453 6.2-12.045a9.369 9.369 0 012.713-.442" fill="#E84740"/><path d="M3.703 9.69C-2.83 19.56-.225 32.925 9.518 39.541a21.06 21.06 0 0010.114 3.574l8.913-15.368a9.399 9.399 0 01-13.348 1.297 9.608 9.608 0 01-2.96-4.37" fill="#4CB749"/><path d="M19.632 43.115c11.697.896 21.895-7.983 22.78-19.832a21.758 21.758 0 00-2.11-11.096H21.149c5.237.025 9.462 4.345 9.438 9.65a9.685 9.685 0 01-2.042 5.91" fill="#FCD208"/></g></svg>