<svg viewBox="0 0 13 13" fill="#D6496B" xmlns="http://www.w3.org/2000/svg"><path d="M11.4963 6.99479V10.3281C11.4963 10.6948 11.1963 10.9948 10.8296 10.9948H2.82959C2.46292 10.9948 2.16292 10.6948 2.16292 10.3281V6.99479C2.16292 6.62813 1.86292 6.32813 1.49626 6.32813C1.12959 6.32813 0.82959 6.62813 0.82959 6.99479V10.9948C0.82959 11.7281 1.42959 12.3281 2.16292 12.3281H11.4963C12.2296 12.3281 12.8296 11.7281 12.8296 10.9948V6.99479C12.8296 6.62813 12.5296 6.32813 12.1629 6.32813C11.7963 6.32813 11.4963 6.62813 11.4963 6.99479ZM7.49626 6.77479L8.74959 5.52146C9.00959 5.26146 9.42959 5.26146 9.68959 5.52146C9.94959 5.78146 9.94959 6.20146 9.68959 6.46146L7.29626 8.85479C7.03626 9.11479 6.61626 9.11479 6.35626 8.85479L3.96292 6.46146C3.70292 6.20146 3.70292 5.78146 3.96292 5.52146C4.22292 5.26146 4.64292 5.26146 4.90292 5.52146L6.16292 6.77479V0.994792C6.16292 0.628125 6.46292 0.328125 6.82959 0.328125C7.19626 0.328125 7.49626 0.628125 7.49626 0.994792V6.77479Z" fill="#F65077"></path></svg>