<svg xmlns="http://www.w3.org/2000/svg" width="1740" height="1027" viewBox="0 0 1740 1027"><g fill="none" fill-rule="evenodd"><rect fill="#353740" x="2" width="251.174" height="30" rx="15"/><rect fill="#353740" x="2" y="340" width="341.17" height="30" rx="15"/><rect fill="#353740" x="2" y="670" width="301.17" height="30" rx="15"/><rect fill="#353740" x="2" y="760" width="251.174" height="30" rx="15"/><rect fill="#292C35" y="72" width="419.123" height="194.023" rx="4"/><rect fill="#292C35" x="441" y="72" width="419.123" height="194.023" rx="4"/><rect fill="#292C35" x="880" y="72" width="419.123" height="194.023" rx="4"/><rect fill="#292C35" x="1320" y="72" width="419.123" height="194.023" rx="4"/><rect fill="#292C35" y="412" width="419.123" height="194.023" rx="4"/><rect fill="#292C35" x="441" y="412" width="419.123" height="194.023" rx="4"/><rect fill="#292C35" y="832" width="419.123" height="194.023" rx="4"/><rect fill="#292C35" x="441" y="832" width="419.123" height="194.023" rx="4"/><rect fill="#292C35" x="880" y="412" width="419.123" height="194.023" rx="4"/><rect fill="#292C35" x="880" y="832" width="419.123" height="194.023" rx="4"/></g></svg>