<svg xmlns="http://www.w3.org/2000/svg" width="25" height="26" viewBox="528 877 25 26"><g fill="none" fill-rule="evenodd" transform="translate(528 877)"><ellipse fill="#FA507B" transform="rotate(45 12.8 12.98)" cx="12.8" cy="13" rx="8.5" ry="8.5"/><path d="M9.6 16c-.3-.2-.3-.8 0-1L15 9.3c.5-.3 1-.3 1.3 0 .4.3.4 1 0 1.2L11 16c-.3.3-.5.4-.8.4-.2 0-.4 0-.6-.3z" fill="#FFF"/><path d="M10.6 16.3l-1.3.4c-.2 0-.4 0-.3-.3l.5-1.3 1 1.3z" fill="#FFF"/><path d="M13.5 9.5l2.7 3" stroke="#FA507B" stroke-width="1.5"/></g></svg>