<svg width="16" height="24" viewBox="0 0 16 24" fill="none" xmlns="http://www.w3.org/2000/svg"><path fill-rule="evenodd" clip-rule="evenodd" d="M0 6.57287C0 -1.86837 15.7936 -2.41303 15.7936 6.30049C15.7936 11.474 10.6201 11.2015 9.53056 16.1035C8.9858 18.5541 5.71815 18.2816 5.71815 15.5587C5.71815 10.9302 9.53056 10.6577 11.1641 7.66241C12.2536 5.48428 10.3469 3.30509 8.16878 3.30509C3.5402 3.30509 5.17348 8.47857 2.17818 8.47857C1.08863 8.47857 0 7.66146 0 6.57287ZM7.62387 24C4.35612 24 4.62858 19.099 7.62387 19.099C10.8916 19.099 10.8916 24 7.62387 24Z" fill="#49495C"></path></svg>